<?xml version="1.0" encoding="UTF-8"?><svg id="Layer_1" xmlns="http://www.w3.org/2000/svg" viewBox="0 0 216 216"><defs><style>.cls-1{fill:#000;stroke-width:0px;}</style></defs><rect class="cls-1" x="95.87" y="102.2" width="4" height="65.14" rx=".23" ry=".23"/><rect class="cls-1" x="105.03" y="102.2" width="4" height="56.18" rx=".23" ry=".23"/><rect class="cls-1" x="105.16" y="58.53" width="4" height="15.85" rx=".23" ry=".23"/><path class="cls-1" d="M96.11,74.38h3.53c.13,0,.23-.11.23-.23v-21.49h14.58v21.49c0,.13.11.23.23.23h3.53c.13,0,.23-.11.23-.23v-25.25c0-.13-.11-.23-.23-.23h-22.1c-.13,0-.23.11-.23.23v25.25c0,.13.11.23.23.23Z"/><path class="cls-1" d="M154.72,76.07H61.28c-.13,0-.23.11-.23.23v22.75c0,.13.11.23.23.23h93.43c.13,0,.23-.11.23-.23v-3.53c0-.13-.11-.23-.23-.23h-89.67v-5.29h89.67c.13,0,.23-.11.23-.23v-3.53c0-.13-.11-.23-.23-.23h-89.67v-5.93h89.67c.13,0,.23-.11.23-.23v-3.53c0-.13-.11-.23-.23-.23Z"/><rect class="cls-1" x="114.45" y="102.2" width="4" height="48.07" rx=".23" ry=".23"/></svg>