<svg xmlns="http://www.w3.org/2000/svg" width="100%" height="100%" viewBox="0 0 259.1397 42.0000" fill="none" preserveAspectRatio="xMidYMid meet" aria-hidden="true" role="img">
  <path d="M0.5587583148558759 9.933481152993348H18.314855875831487V15.303769401330378H12.23059866962306V31.414634146341466H6.643015521064302V15.303769401330378H0.5587583148558759Z M26.509977827051 17.973392461197342H34.6430155210643V9.933481152993348H40.23059866962306V31.414634146341466H34.6430155210643V23.25055432372506H26.509977827051V31.414634146341466H20.92239467849224V9.933481152993348H26.509977827051Z M44.328159645232816 9.933481152993348H59.25942350332595V15.14855875831486H49.91574279379158V18.066518847006655H58.01773835920178V23.281596452328163H49.91574279379158V26.19955654101996H59.25942350332595V31.414634146341466H44.328159645232816Z M70.55875831485588 9.933481152993348H85.49002217294901V15.14855875831486H76.14634146341464V18.066518847006655H84.24833702882484V23.281596452328163H76.14634146341464V26.19955654101996H85.49002217294901V31.414634146341466H70.55875831485588Z M108.36807095343681 9.933481152993348 102.00443458980045 20.549889135254993 108.67849223946786 31.414634146341466H102.470066518847L97.9689578713969 23.529933481152995L93.46784922394679 31.414634146341466H87.25942350332595L93.93348115299335 20.549889135254993L87.56984478935699 9.933481152993348H93.77827050997783L97.9689578713969 17.47671840354767L102.15964523281596 9.933481152993348Z M111.00665188470067 9.933481152993348H119.57427937915745Q124.10643015521066 9.933481152993348 126.46563192904658 11.951219512195124Q128.8248337028825 13.9689578713969 128.8248337028825 17.911308203991133V17.942350332594238Q128.8248337028825 21.853658536585368 126.48115299334813 23.871396895787143Q124.13747228381376 25.889135254988915 119.57427937915745 25.889135254988915H116.59423503325944V31.414634146341466H111.00665188470067ZM123.23725055432374 17.942350332594238V17.911308203991133Q123.23725055432374 16.483370288248338 122.33702882483371 15.847006651884703Q121.4368070953437 15.210643015521068 119.57427937915745 15.210643015521068H116.59423503325944V20.611973392461202H119.57427937915745Q121.4678492239468 20.611973392461202 122.35254988913528 20.00665188470067Q123.23725055432374 19.401330376940138 123.23725055432374 17.942350332594238Z M131.52549889135258 9.933481152993348H146.4567627494457V15.14855875831486H137.11308203991132V18.066518847006655H145.21507760532154V23.281596452328163H137.11308203991132V26.19955654101996H146.4567627494457V31.414634146341466H131.52549889135258Z M168.37250554323728 31.414634146341466H162.13303769401332L158.159645232816 24.74057649667406H155.58314855875832V31.414634146341466H149.9955654101996V9.933481152993348H159.05986696230602Q163.25055432372508 9.933481152993348 165.53215077605324 11.889135254988915Q167.8137472283814 13.844789356984482 167.8137472283814 17.383592017738362V17.414634146341466Q167.8137472283814 22.350332594235034 163.52993348115302 24.026607538802665ZM159.05986696230602 14.962305986696233H155.58314855875832V19.929046563192905H159.05986696230602Q160.6119733924612 19.929046563192905 161.41906873614192 19.38580931263858Q162.22616407982264 18.84257206208426 162.22616407982264 17.414634146341466V17.383592017738362Q162.22616407982264 14.962305986696233 159.05986696230602 14.962305986696233Z M176.62971175166297 31.414634146341466H171.04212860310423V9.933481152993348H176.62971175166297Z M180.72727272727275 9.933481152993348H195.65853658536585V15.14855875831486H186.31485587583148V18.066518847006655H194.4168514412417V23.281596452328163H186.31485587583148V26.19955654101996H195.65853658536585V31.414634146341466H180.72727272727275Z M213.07317073170734 21.760532150776058V9.933481152993348H218.50554323725055V31.414634146341466H213.6319290465632L204.62971175166297 19.618625277161865V31.414634146341466H199.19733924611975V9.933481152993348H204.07095343680712Z M240.26607538802662 12.292682926829269 237.19290465631929 16.483370288248338Q235.20620842572063 14.776053215077606 232.50554323725055 14.776053215077606H232.47450110864747Q229.9290465631929 14.776053215077606 228.4390243902439 16.452328159645234Q226.94900221729492 18.128603104212864 226.94900221729492 20.643015521064306V20.674057649667407Q227.01108647450113 23.25055432372506 228.48558758314857 24.911308203991133Q229.96008869179602 26.572062084257208 232.47450110864747 26.572062084257208H232.50554323725055Q235.17516629711753 26.572062084257208 237.19290465631929 24.864745011086477L240.26607538802662 29.055432372505546Q237.3481152993348 31.787139689578716 232.50554323725055 31.787139689578716H232.47450110864747Q227.32150776053217 31.787139689578716 224.34146341463418 28.69844789356985Q221.36141906873615 25.60975609756098 221.36141906873615 20.674057649667407V20.643015521064306Q221.36141906873615 15.738359201773838 224.34146341463418 12.64966740576497Q227.32150776053217 9.560975609756099 232.47450110864747 9.560975609756099H232.50554323725055Q237.3481152993348 9.560975609756099 240.26607538802662 12.292682926829269Z M242.71840354767187 9.933481152993348H257.649667405765V15.14855875831486H248.3059866962306V18.066518847006655H256.4079822616408V23.281596452328163H248.3059866962306V26.19955654101996H257.649667405765V31.414634146341466H242.71840354767187Z" fill="currentColor" fill-rule="evenodd" clip-rule="evenodd"/>
</svg>